<?xml version="1.0" encoding="utf-8"?>
<!-- Generator: Adobe Illustrator 23.0.1, SVG Export Plug-In . SVG Version: 6.00 Build 0)  -->
<svg version="1.1" id="Warstwa_1" xmlns="http://www.w3.org/2000/svg" xmlns:xlink="http://www.w3.org/1999/xlink" x="0px" y="0px"
	 viewBox="0 0 732.9 237.2" style="enable-background:new 0 0 732.9 237.2;" xml:space="preserve">
<style type="text/css">
	.st0{fill:#E52C2C;}
	.st1{fill:#FFFFFF;}
	.st2{fill:#353232;}
</style>
<g id="Warstwa_3">
	<g>
		<path class="st0" d="M280.1,141.8h9.9l22.2,57.1h-8.9l-6.5-17.3h-24.5l-6.4,17.3h-8.4L280.1,141.8z M294.6,175.7l-9.7-25.8h-0.8
			l-9.7,25.8H294.6z"/>
		<path class="st0" d="M318.8,198.7v-6.1c6.9,1.1,11.8,1.7,14.8,1.7c3.8,0,6.5-0.4,8.1-1.1s2.5-2.1,2.5-4.1v-4.3
			c0-1.8-0.6-3.1-1.8-3.9c-1.2-0.8-3.2-1.1-6-1.1h-4.8c-4.4,0-7.8-0.9-10.1-2.7c-2.3-1.8-3.5-4.4-3.5-7.7v-4c0-6.7,6.3-10,19-10
			c0.9,0,5.3,0.2,12.9,0.7v5.7c-5.2-0.8-9.7-1.2-13.3-1.2c-4.2,0-7,0.4-8.5,1.2s-2.3,2.2-2.3,4.1v3.6c0,2.9,2.6,4.3,7.8,4.3h4.9
			c9,0,13.5,3.3,13.5,10v3.7c0,4.4-1.5,7.5-4.6,9.4c-3.1,1.8-7.7,2.8-14,2.8C328.8,199.8,324,199.4,318.8,198.7z"/>
		<path class="st0" d="M361.3,198.7v-6.1c6.9,1.1,11.8,1.7,14.8,1.7c3.8,0,6.5-0.4,8.1-1.1s2.5-2.1,2.5-4.1v-4.3
			c0-1.8-0.6-3.1-1.8-3.9c-1.2-0.8-3.2-1.1-6-1.1h-4.8c-4.4,0-7.8-0.9-10.1-2.7c-2.3-1.8-3.5-4.4-3.5-7.7v-4c0-6.7,6.3-10,19-10
			c0.9,0,5.3,0.2,12.9,0.7v5.7c-5.2-0.8-9.7-1.2-13.3-1.2c-4.2,0-7,0.4-8.5,1.2s-2.3,2.2-2.3,4.1v3.6c0,2.9,2.6,4.3,7.8,4.3h4.9
			c9,0,13.5,3.3,13.5,10v3.7c0,4.4-1.5,7.5-4.6,9.4c-3.1,1.8-7.7,2.8-14,2.8C371.3,199.8,366.5,199.4,361.3,198.7z"/>
		<path class="st0" d="M414.9,199.4c-1.9-0.3-3.8-0.8-5.6-1.7c-1.9-0.9-3.3-2.3-4.2-4.3c-0.9-2-1.3-4.6-1.3-8v-14.8c0-2.6,0.3-5,1-7
			c0.6-2,1.5-3.5,2.6-4.7c0.9-1,2.2-1.8,4-2.3c1.8-0.6,3.6-0.9,5.5-1.1c2.1-0.1,4.3-0.2,6.6-0.2c3,0,5.4,0.1,6.9,0.2
			c1.6,0.1,3.2,0.5,5,0.9c1.8,0.5,3.2,1.3,4.2,2.4s1.8,2.6,2.6,4.6c0.6,2.1,1,4.4,1,7.1v14.9c0,5-1.1,8.6-3.4,10.9
			c-0.9,0.9-2.3,1.7-4,2.2c-1.8,0.5-3.6,0.9-5.5,1.1c-2.2,0.1-4.5,0.2-6.7,0.2C419.6,199.8,416.8,199.6,414.9,199.4z M428.8,194.4
			c1.1-0.1,2.2-0.4,3.3-1c1.1-0.5,1.8-1.2,2.2-2.3c0.4-1.1,0.7-2.6,0.7-4.5v-17.2c0-2.6-0.3-4.6-1-5.8c-0.6-1.2-1.7-2-3.3-2.4
			c-1.6-0.4-4-0.6-7.3-0.6s-5.7,0.2-7.3,0.6c-1.6,0.4-2.7,1.2-3.3,2.4c-0.6,1.2-1,3.1-1,5.8v17.2c0,1.9,0.2,3.4,0.7,4.5
			c0.4,1.1,1.2,1.9,2.2,2.3c1.1,0.5,2.1,0.9,3.3,1c1.1,0.1,2.9,0.2,5.4,0.2S427.6,194.5,428.8,194.4z"/>
		<path class="st0" d="M466.1,199.6c-1.3-0.1-2.8-0.4-4.5-0.9c-1.8-0.5-3.2-1.2-4.2-2.1s-1.8-2.3-2.6-4.1c-0.7-1.8-1.1-4-1.1-6.6
			v-15.7c0-4.8,0.9-8.2,2.7-10.2c1-1.2,2-2.1,3-2.7s2.4-1,4-1.3c1.6-0.2,3.1-0.4,4.4-0.5s3.1-0.1,5.5-0.1c4,0,8.1,0.4,12.1,1.3v5.8
			c-4.7-1.2-9.1-1.8-13.1-1.8c-3.1,0-5.3,0.2-6.7,0.7c-1.4,0.4-2.4,1.2-3,2.4c-0.6,1.1-0.8,2.9-0.8,5.2v17.4c0,2.2,0.3,3.8,0.9,4.8
			c0.6,1.1,1.7,1.8,3.3,2.2c1.6,0.4,4,0.7,7.2,0.7c4.3,0,8.6-0.6,12.8-1.7v6c-4,0.8-8.5,1.2-13.6,1.2
			C469.6,199.8,467.4,199.7,466.1,199.6z"/>
		<path class="st0" d="M496.2,140.9h7.9v8.3h-7.9V140.9z M496.2,156.3h7.9v42.6h-7.9V156.3z"/>
		<path class="st0" d="M521.5,198.6c-2.2-0.8-3.8-2.1-4.8-4s-1.5-4.7-1.5-8.4c0-3.2,0.5-5.7,1.4-7.5s2.5-3.1,4.7-3.8
			c2.2-0.8,5.3-1.1,9.4-1.1h12.8V167c0-1.6-0.3-2.8-0.9-3.7c-0.6-0.8-1.6-1.5-3.1-1.8c-1.4-0.4-3.5-0.5-6.3-0.5
			c-4.4,0-9.3,0.4-14.6,1.1v-5.8c5.8-0.5,11.1-0.8,15.8-0.8c4.9,0,8.6,0.4,10.9,1.1c2.3,0.7,4,2,4.8,3.8c0.9,1.8,1.3,4.6,1.3,8.4
			v30.1h-7.7v-4c-0.6,3.3-4.9,4.9-12.8,4.9C526.9,199.8,523.7,199.4,521.5,198.6z M532.2,194.6c2.9,0,5.3-0.2,7.3-0.6
			c2.6-0.5,4-1.8,4-3.7v-11.6h-12.2c-2.5,0-4.3,0.2-5.5,0.6c-1.1,0.4-1.8,1.1-2.2,2.2s-0.5,2.8-0.5,5.1c0,2.1,0.2,3.7,0.6,4.9
			c0.4,1.1,1.1,2,2.2,2.5c1.1,0.5,2.6,0.7,4.8,0.7L532.2,194.6L532.2,194.6L532.2,194.6z"/>
		<path class="st0" d="M574.5,198.6c-2.1-0.8-3.5-2.1-4.4-4s-1.4-4.6-1.4-8.1v-25h-9.5v-5.2h9.5v-13.2h8v13.2h15.2v5.2h-15.2v25.4
			c0,2.1,0.2,3.7,0.7,4.8s1.4,1.8,2.6,2.2c1.3,0.4,3.1,0.7,5.5,0.7c0.8,0,2.9-0.2,6.3-0.7v5.2c-3,0.5-6,0.7-8.9,0.7
			C579.4,199.8,576.5,199.4,574.5,198.6z"/>
		<path class="st0" d="M600.5,140.9h7.9v8.3h-7.9V140.9z M600.5,156.3h7.9v42.6h-7.9V156.3z"/>
		<path class="st0" d="M631.8,199.4c-1.9-0.3-3.8-0.8-5.6-1.7c-1.9-0.9-3.3-2.3-4.2-4.3s-1.3-4.6-1.3-8v-14.8c0-2.6,0.3-5,1-7
			c0.6-2,1.5-3.5,2.6-4.7c0.9-1,2.2-1.8,4-2.3c1.8-0.6,3.6-0.9,5.5-1.1c2.1-0.1,4.3-0.2,6.6-0.2c3,0,5.4,0.1,6.9,0.2
			c1.6,0.1,3.2,0.5,5,0.9c1.8,0.5,3.2,1.3,4.2,2.4s1.8,2.6,2.6,4.6c0.6,2.1,1,4.4,1,7.1v14.9c0,5-1.1,8.6-3.4,10.9
			c-0.9,0.9-2.3,1.7-4,2.2c-1.8,0.5-3.6,0.9-5.5,1.1c-2.2,0.1-4.5,0.2-6.7,0.2C636.5,199.8,633.6,199.6,631.8,199.4z M645.6,194.4
			c1.1-0.1,2.2-0.4,3.3-1c1.1-0.5,1.8-1.2,2.2-2.3s0.7-2.6,0.7-4.5v-17.2c0-2.6-0.3-4.6-1-5.8c-0.6-1.2-1.7-2-3.3-2.4
			s-4-0.6-7.3-0.6s-5.7,0.2-7.3,0.6s-2.7,1.2-3.3,2.4s-1,3.1-1,5.8v17.2c0,1.9,0.2,3.4,0.7,4.5c0.4,1.1,1.2,1.9,2.2,2.3
			c1.1,0.5,2.1,0.9,3.3,1c1.1,0.1,2.9,0.2,5.4,0.2S644.5,194.5,645.6,194.4z"/>
		<path class="st0" d="M672.2,156.3h7.9v5.2c0.8-4,5.5-6.1,14-6.1c5.5,0,9.3,1,11.5,2.9c2.2,2,3.3,5.1,3.3,9.3v31.2H701V168
			c0-1.1-0.1-2-0.3-2.7s-0.5-1.4-1.1-2.1c-1.2-1.5-3.8-2.2-7.8-2.2c-3.1,0-5.5,0.2-7.2,0.7c-1.7,0.4-2.8,1.2-3.5,2.2s-1,2.4-1,4.2
			v30.8h-7.9V156.3z"/>
	</g>
</g>
<g>
	<path class="st0" d="M256.7,41.7h25.7L301,95.4l18.3-53.7h24.2v75.2h-16.3V61.3h-0.3l-19,55.6h-14.5l-19.6-55.6h-0.5v55.6h-16.6
		V41.7z"/>
	<path class="st0" d="M359.7,41.7h18.1V104h36.9v12.9h-55V41.7z"/>
	<path class="st0" d="M453.3,40.5h16.9v13.7h-16.9V40.5z M453.3,60.8h16.9v56.1h-16.9V60.8z"/>
	<path class="st0" d="M485.5,60.8h16.7v6.8c1.3-5.3,7.3-8,18-8c7.2,0,12.2,1.3,15.1,3.9c2.9,2.6,4.3,6.7,4.3,12.2v41.1h-16.9V77.9
		c0-2.2-0.2-3.8-0.6-4.9c-0.4-1.1-1.3-1.9-2.5-2.3c-1.3-0.5-3.2-0.7-5.8-0.7c-3.3,0-5.8,0.2-7.3,0.6c-1.5,0.4-2.6,1.2-3.1,2.3
		c-0.5,1.1-0.8,2.7-0.8,5v38.9h-16.9V60.8z"/>
	<path class="st0" d="M581.7,41.7h30.1c7.3,0,13.1,0.5,17.4,1.5c4.3,1,7.4,2.8,9.4,5.3c2,2.5,3,6,3,10.5v14.2
		c0,4.9-1.1,8.8-3.2,11.6c-2.1,2.8-5.5,4.7-10.1,5.9c-4.6,1.2-10.8,1.7-18.6,1.7h-10v24.4h-18.1V41.7z M611.2,80c4.7,0,8-0.6,10-1.7
		c1.9-1.1,2.9-3,2.9-5.7v-12c0-2.5-0.9-4.1-2.8-4.9c-1.8-0.8-5.2-1.2-10.3-1.2h-11.2V80H611.2z"/>
	<path class="st0" d="M654.3,41.7h18.1V104h36.9v12.9h-55V41.7z"/>
</g>
<g>
	<circle id="XMLID_2918_" class="st1" cx="73.9" cy="183.3" r="8.3"/>
	<circle id="XMLID_2916_" class="st1" cx="92.2" cy="54.9" r="8.7"/>
	<path id="XMLID_2915_" class="st1" d="M203.8,115.5c0,0-10.1,7.3-24.5,10.6l44.6,82.1V66.8L183,103.7
		C194.5,108.3,203.8,115.5,203.8,115.5z"/>
	<polygon id="XMLID_2914_" class="st1" points="225.8,53.7 225.8,19.1 186.6,19.1 174.2,100.2 	"/>
	<path id="XMLID_2913_" class="st1" d="M109.8,46.2c10.8,4.6,19.3,11.1,19.3,11.1s-6.1,4.5-15.7,8l46.1,35.5
		c1.3-0.2,2.5-0.4,3.7-0.6l12.3-80.5h-33l0.1,0.1L109.8,46.2z"/>
	<path id="XMLID_2912_" class="st1" d="M143.7,123.2c-9.1-3.5-15-7.7-15-7.7s8.5-6.6,19.3-11.1l-46.6-35.8c-2.3,0.4-4.6,0.7-7,0.8
		L80.2,169.9c0.6,0.1,1.2,0.2,1.7,0.4L143.7,123.2z"/>
	<path id="XMLID_2911_" class="st1" d="M91.5,41.9c2.4,0,4.7,0.3,7.1,0.8l28.3-23H33.3l47.1,23.9C84.1,42.5,87.8,41.9,91.5,41.9z"/>
	<path id="XMLID_2910_" class="st1" d="M35.7,184.6c0,0,13-10,27.3-13.9l-38.2-74V213l27.1-20.3C42.1,189.2,35.7,184.6,35.7,184.6z"
		/>
	<path id="XMLID_2909_" class="st1" d="M155.6,126.6L93,174.1c10.1,4.5,17.8,10.5,17.8,10.5s-7.7,5.7-19.4,9.2l25.7,25h23.2
		l18.1-91.8C157.4,126.9,156.4,126.8,155.6,126.6z"/>
	<path id="XMLID_2908_" class="st1" d="M73.2,196.7c-3.1,0-6.2-0.3-9.2-0.7l-30.5,22.9H103l-23.1-22.6
		C77.7,196.5,75.5,196.7,73.2,196.7z"/>
	<path id="XMLID_2907_" class="st1" d="M86.1,69.6c-17.8-2.2-31-11.8-31-11.8s6.1-4.7,14.6-9L25.6,26.4v49.9L72,168.7L86.1,69.6z"/>
	<path id="XMLID_2906_" class="st1" d="M168.3,127.6l-18,91.3h68.2L169,127.6C168.7,127.6,168.5,127.6,168.3,127.6z"/>
	<path id="XMLID_2905_" class="st1" d="M87.8,45.7l-0.1,0.5c0.2-0.1,0.3-0.1,0.5-0.2L87.8,45.7z"/>
	<path id="XMLID_2860_" class="st1" d="M163,103.6L163,103.6L163,103.6L163,103.6z"/>
	<path id="XMLID_2859_" class="st1" d="M72.8,189.4L72.8,189.4L72.8,189.4L72.8,189.4z"/>
	<path id="XMLID_2858_" class="st1" d="M76,192.7c0.1,0,0.1,0,0.2-0.1l-0.2-0.1V192.7z"/>
	<path id="XMLID_2857_" class="st1" d="M72.6,189.4l0.1,0.1l0.1-0.1C72.7,189.4,72.6,189.4,72.6,189.4z"/>
</g>
<g>
	<path class="st2" d="M73.9,193c-5.4,0-9.8-4.4-9.8-9.8c0-5.4,4.4-9.8,9.8-9.8s9.8,4.4,9.8,9.8C83.7,188.7,79.3,193,73.9,193
		 M73.9,177.6c-3.1,0-5.7,2.6-5.7,5.7s2.6,5.7,5.7,5.7s5.7-2.6,5.7-5.7C79.7,180.1,77.1,177.6,73.9,177.6"/>
	<path class="st2" d="M92.2,64.6c-5.4,0-9.8-4.4-9.8-9.8s4.4-9.8,9.8-9.8s9.8,4.4,9.8,9.8C101.9,60.3,97.6,64.6,92.2,64.6
		 M92.2,49.2c-3.1,0-5.7,2.6-5.7,5.7c0,3.1,2.6,5.7,5.7,5.7s5.7-2.6,5.7-5.7C97.9,51.7,95.4,49.2,92.2,49.2"/>
	<path class="st0" d="M177,113.2c0,5.3-4.3,9.6-9.6,9.6s-9.6-4.3-9.6-9.6c0-5.3,4.3-9.6,9.6-9.6C172.8,103.6,177,107.9,177,113.2"/>
	<path class="st2" d="M227.4,216.7l-49.8-91.9l2.6-0.6c9.9-2.2,17.8-6.5,21.5-8.8c-3.4-2.4-10.3-6.8-18.2-9.9l-3-1.2L227.4,62V216.7
		z M183.6,127.4l39.8,73.5V71L188,103c10.3,4.6,18.2,10.6,18.5,10.9l2.1,1.6l-2.2,1.6C206,117.4,197,123.9,183.6,127.4"/>
	<path class="st2" d="M176.9,102.4l-5.2-1.1l13.7-84.5h42.4v37L176.9,102.4z M188.7,20.8l-12.4,76.6l47.4-45.3V20.8
		C223.7,20.8,188.7,20.8,188.7,20.8z"/>
	<path class="st2" d="M160.3,102.5l-50-38.4l3.4-1.3c5.8-2.2,10.4-4.7,13-6.2c-3.2-2.2-9.4-6.2-16.6-9.2l-2.9-1.2l32.5-29.3h39.7
		l-13,84.9l-1.5,0.2c-1.2,0.1-2.4,0.3-3.6,0.5H160.3z M118.5,65.3l42.9,33c0.5-0.1,1-0.2,1.5-0.2l11.8-77.2h-33.4L114.5,45
		c9.6,4.5,16.6,9.9,16.9,10.2l2.1,1.6l-2.2,1.6C131.3,58.4,126.3,62,118.5,65.3"/>
	<path class="st2" d="M83,172.7l-3.5-0.7L93.4,67.1l1.7-0.1c2.3-0.1,4.6-0.4,6.8-0.8l0.8-0.2l50.3,38.7l-3.1,1.3
		c-7.2,3-13.4,7-16.6,9.3c2.5,1.5,6.8,3.9,12.2,6l3.4,1.3L83,172.7z M96.9,70.9l-12.7,95.9l56.6-43c-7.5-3.2-12-6.5-12.2-6.7
		l-2.2-1.6l2.1-1.6c0.3-0.3,7.3-5.6,16.7-10.1l-43.6-33.5C100.1,70.6,98.5,70.8,96.9,70.9"/>
	<path class="st2" d="M81.2,45L25.6,16.8h108.3L100.2,44l-0.9-0.2c-2.4-0.5-4.7-0.7-6.8-0.7c-3.2,0-6.7,0.6-10.5,1.7L81.2,45z
		 M42.3,20.8l39.3,19.9c3.9-1,7.6-1.6,10.9-1.6c2.1,0,4.3,0.2,6.6,0.6l23.5-18.9C122.6,20.8,42.3,20.8,42.3,20.8z"/>
	<path class="st2" d="M23.1,217.7V88l41.7,84.3l-2.4,0.6c-10.2,2.8-19.1,8.9-23,11.8c2.6,1.6,7.5,4.3,13.6,6.5l3.5,1.3L23.1,217.7z
		 M27.2,105.1v104.5l21.2-15.9c-8.1-3.4-13.2-7-13.4-7.2l-2-1.5l1.9-1.6c0.5-0.4,10.9-9.3,24.3-13.6L27.2,105.1z"/>
	<path class="st2" d="M143,221.4h-25.8l-28.8-28.1l3.2-1c7.6-2.3,13.4-5.6,16.5-7.5c-3-2-8.7-5.7-15.2-8.7l-3.1-1.4l66.3-50.4
		l0.9,0.2c0.9,0.2,1.8,0.3,2.7,0.5l2.1,0.3L143,221.4z M118.8,217.4h20.9l17.5-88.6L97.6,174c8.7,4.3,15.1,9.1,15.3,9.4l2.1,1.6
		l-2.2,1.6c-0.3,0.2-6.8,4.9-16.9,8.5L118.8,217.4z"/>
	<path class="st2" d="M108.7,221.4H27.9l36.2-27.1l0.8,0.2c5.2,0.8,10.1,0.9,15.4,0.3l0.9-0.1L108.7,221.4z M39.9,217.4h59l-19-18.6
		c-5,0.5-9.8,0.4-14.7-0.3L39.9,217.4z"/>
	<path class="st2" d="M69.7,171.5l-46.3-96V22.3l50.2,25.5l-3.5,1.8c-5.1,2.6-9.4,5.4-11.9,7c4.5,2.7,14.8,8.2,27.5,9.8l2,0.3
		L75.3,171.3L69.7,171.5z M27.4,74.6l44.4,92.1l11.4-96.6c-17-2.6-29.2-11.4-29.7-11.8l-2.2-1.6l2.1-1.6c0.2-0.2,4.7-3.6,11.3-7.3
		l-37.4-19L27.4,74.6L27.4,74.6z"/>
	<path class="st2" d="M223.4,221.4H149l18.8-95.8l3.5-0.2L223.4,221.4z M153.8,217.4h62.8l-46.1-85L153.8,217.4z"/>
</g>
</svg>
